<svg width="59" height="58" viewBox="0 0 59 58" fill="none" xmlns="http://www.w3.org/2000/svg">
<path opacity="0.1" fill-rule="evenodd" clip-rule="evenodd" d="M29.525 56.5689C44.8015 56.5689 57.1856 44.1848 57.1856 28.9082C57.1856 13.6317 44.8015 1.24756 29.525 1.24756C14.2484 1.24756 1.86432 13.6317 1.86432 28.9082C1.86432 44.1848 14.2484 56.5689 29.525 56.5689Z" stroke="#FFEBDD" stroke-width="2.37091"/>
<path d="M32.0429 21.8283H34.5851C34.819 21.8283 35.0088 21.6495 35.0088 21.4291V19.0335C35.0088 18.8131 34.819 18.6343 34.5851 18.6343H32.0429C29.4736 18.6343 27.3822 20.6042 27.3822 23.0261V25.8209H24.4163C24.1824 25.8209 23.9926 25.9998 23.9926 26.2202V28.6157C23.9926 28.8361 24.1824 29.015 24.4163 29.015H27.3822V37.3994C27.3822 37.6198 27.572 37.7987 27.8059 37.7987H30.3481C30.582 37.7987 30.7718 37.6198 30.7718 37.3994V29.015H33.7377C33.9199 29.015 34.0818 28.9048 34.1402 28.7419L34.9876 26.3464C35.0309 26.225 35.0088 26.0908 34.9292 25.9862C34.8487 25.8824 34.7216 25.8209 34.5851 25.8209H30.7718V23.0261C30.7718 22.3657 31.3421 21.8283 32.0429 21.8283Z" fill="#FFEBDD"/>
</svg>
