<svg width="59" height="58" viewBox="0 0 59 58" fill="none" xmlns="http://www.w3.org/2000/svg">
<path opacity="0.1" fill-rule="evenodd" clip-rule="evenodd" d="M29.4945 56.5686C44.7711 56.5686 57.1552 44.1845 57.1552 28.908C57.1552 13.6314 44.7711 1.24731 29.4945 1.24731C14.218 1.24731 1.83386 13.6314 1.83386 28.908C1.83386 44.1845 14.218 56.5686 29.4945 56.5686Z" stroke="#FFEBDD" stroke-width="2.37091"/>
<path d="M23.146 23.3241C24.4411 23.3241 25.4909 22.2742 25.4909 20.9792C25.4909 19.6841 24.4411 18.6343 23.146 18.6343C21.8509 18.6343 20.8011 19.6841 20.8011 20.9792C20.8011 22.2742 21.8509 23.3241 23.146 23.3241Z" fill="#FFEBDD"/>
<path d="M25.1003 24.8906H21.1921C20.9764 24.8906 20.8013 25.0657 20.8013 25.2814V37.006C20.8013 37.2217 20.9764 37.3968 21.1921 37.3968H25.1003C25.3161 37.3968 25.4912 37.2217 25.4912 37.006V25.2814C25.4912 25.0657 25.3161 24.8906 25.1003 24.8906Z" fill="#FFEBDD"/>
<path d="M36.746 24.2392C35.0756 23.6671 32.9863 24.1697 31.7333 25.0709C31.6904 24.9028 31.5372 24.7778 31.355 24.7778H27.4468C27.2311 24.7778 27.056 24.9529 27.056 25.1686V36.8931C27.056 37.1089 27.2311 37.284 27.4468 37.284H31.355C31.5708 37.284 31.7459 37.1089 31.7459 36.8931V28.4671C32.3774 27.9231 33.1911 27.7496 33.8571 28.0325C34.5027 28.3053 34.8724 28.9713 34.8724 29.8584V36.8931C34.8724 37.1089 35.0475 37.284 35.2632 37.284H39.1714C39.3871 37.284 39.5622 37.1089 39.5622 36.8931V29.0713C39.5177 25.8596 38.0068 24.6707 36.746 24.2392Z" fill="#FFEBDD"/>
</svg>
