<svg width="150" height="76" viewBox="0 0 150 76" fill="none" xmlns="http://www.w3.org/2000/svg">
<path d="M104.713 35.298C104.713 45.254 99.2564 54.0573 85.8093 54.0573H69.2439C67.3986 54.0573 65.9065 52.5648 65.9065 50.7325V9.62232C65.9065 8.09343 66.9479 6.78902 68.4278 6.38253C70.7238 5.75156 72.8737 4.90824 74.8835 3.84044C77.1551 2.6331 79.8896 4.2348 79.8896 6.79509V19.7543C79.8896 19.7543 79.9261 19.7967 79.9444 19.7785C81.8445 17.9706 83.696 16.6176 88.0322 16.6176C98.8667 16.6176 104.707 24.9658 104.707 35.298H104.713ZM90.7301 36.293C90.7301 26.5675 87.8069 20.4762 84.4268 20.4762C82.8921 20.4762 79.8896 22.084 79.8896 25.3784V44.4107C79.8896 48.7729 80.0418 51.9823 83.6533 51.9823C88.2636 51.9823 90.7241 45.254 90.7241 36.293H90.7301Z" fill="white"/>
<path d="M51.223 22.4541C53.519 21.8413 55.681 20.9919 57.6908 19.9241C59.9076 18.741 62.5812 20.3124 62.5812 22.8181V50.7689C62.5812 52.589 61.1013 54.0572 59.2803 54.0572H51.9417C50.0963 54.0572 48.5981 52.5647 48.5981 50.7264V25.8031C48.5981 24.2196 49.6944 22.8666 51.2291 22.4541H51.223Z" fill="white"/>
<path d="M49.195 14.3546C48.3546 12.2433 48.1902 9.40389 50.0355 7.73545C51.9356 6.01242 55.5106 6.01242 57.3498 7.84466C59.0246 9.45849 58.915 11.9035 58.4095 13.9663C57.4594 18.0251 52.3802 19.639 48.8601 20.4762C49.4752 19.4752 49.8102 18.4195 49.8102 17.473C49.8102 16.3628 49.5848 15.301 49.195 14.3546Z" fill="white"/>
<path d="M111.546 73.041C111.546 72.4282 112.052 72.228 112.582 72.1188C113.118 72.0096 113.526 71.9307 113.526 71.5667C113.526 71.2694 113.233 71.0449 112.819 71.0449C112.429 71.0449 112.113 71.2633 112.088 71.5788H111.644C111.662 71.0388 112.168 70.6505 112.838 70.6505C113.507 70.6505 113.964 70.9964 113.964 71.6152V73.223C113.964 73.3564 114.013 73.4292 114.135 73.4292C114.177 73.4292 114.208 73.4292 114.244 73.411V73.7751C114.202 73.7933 114.123 73.8175 114.025 73.8175C113.739 73.8175 113.55 73.6113 113.568 73.1623L113.605 73.1866C113.434 73.5081 113.051 73.86 112.466 73.86C111.948 73.86 111.552 73.5749 111.552 73.041H111.546ZM111.985 69.5039H112.545L113.105 70.3411H112.673L111.985 69.5039ZM113.52 72.8165V72.052C113.325 72.2826 113.063 72.3493 112.63 72.4525C112.192 72.5556 111.991 72.6951 111.991 72.9985C111.991 73.3504 112.247 73.4717 112.515 73.4717C112.898 73.4717 113.3 73.2472 113.52 72.8165Z" fill="white"/>
<path d="M116.047 70.7294H116.522L117.216 72.7133C117.289 72.9257 117.369 73.1805 117.448 73.4171H117.363C117.436 73.1805 117.521 72.9257 117.594 72.7133L118.288 70.7294H118.763L117.667 73.7811H117.155L116.053 70.7294H116.047Z" fill="white"/>
<path d="M119.141 72.2583C119.141 71.3058 119.689 70.6566 120.517 70.6566C121.346 70.6566 121.894 71.3058 121.894 72.2583C121.894 73.2108 121.339 73.8661 120.517 73.8661C119.695 73.8661 119.141 73.2169 119.141 72.2583ZM121.449 72.2583C121.449 71.5424 121.078 71.0449 120.517 71.0449C119.957 71.0449 119.585 71.5424 119.585 72.2583C119.585 72.9742 119.957 73.4717 120.517 73.4717C121.078 73.4717 121.449 72.9742 121.449 72.2583Z" fill="white"/>
<path d="M122.838 73.1198V71.1116H122.356V70.7294H122.838V69.8861H123.276V70.7294H123.916V71.1116H123.276V73.0531C123.276 73.3443 123.41 73.4657 123.672 73.4657C123.788 73.4657 123.903 73.4475 123.976 73.4171V73.7993C123.909 73.8297 123.745 73.86 123.587 73.86C123.099 73.86 122.838 73.6113 122.838 73.1138V73.1198Z" fill="white"/>
<path d="M124.726 70.7294H125.152V71.3786L125.121 71.3422C125.28 70.9236 125.566 70.6809 125.962 70.6809C126.047 70.6809 126.145 70.693 126.206 70.7112V71.142C126.139 71.1238 126.047 71.1116 125.956 71.1116C125.462 71.1116 125.17 71.5242 125.17 71.9914V73.7811H124.732V70.7294H124.726Z" fill="white"/>
<path d="M126.595 72.2401C126.595 71.3483 127.119 70.6505 127.966 70.6505C128.757 70.6505 129.299 71.2694 129.299 72.1612V72.3493H127.046C127.058 72.9196 127.381 73.4657 127.996 73.4657C128.38 73.4657 128.709 73.2594 128.812 72.9136H129.238C129.129 73.4717 128.623 73.86 127.978 73.86C127.082 73.86 126.589 73.1138 126.589 72.2401H126.595ZM128.849 71.9974C128.824 71.4514 128.471 71.0449 127.966 71.0449C127.43 71.0449 127.095 71.4878 127.058 71.9974H128.855H128.849Z" fill="white"/>
<path d="M131.455 70.7294H131.882V71.3786L131.851 71.3422C132.009 70.9236 132.296 70.6809 132.692 70.6809C132.777 70.6809 132.874 70.693 132.935 70.7112V71.142C132.868 71.1238 132.777 71.1116 132.685 71.1116C132.192 71.1116 131.9 71.5242 131.9 71.9914V73.7811H131.461V70.7294H131.455Z" fill="white"/>
<path d="M133.599 74.9763V74.588C133.66 74.6063 133.733 74.6184 133.8 74.6184C134.111 74.6184 134.202 74.406 134.287 74.1512L134.409 73.7993L133.27 70.7294H133.745L134.64 73.229L135.505 70.7294H135.98L134.683 74.3393C134.592 74.5941 134.409 75.0127 133.879 75.0127C133.776 75.0127 133.66 75.0006 133.593 74.9763H133.599Z" fill="white"/>
<path d="M136.845 73.1198V71.1116H136.364V70.7294H136.845V69.8861H137.284V70.7294H137.923V71.1116H137.284V73.0531C137.284 73.3443 137.418 73.4657 137.679 73.4657C137.795 73.4657 137.911 73.4475 137.984 73.4171V73.7993C137.917 73.8297 137.753 73.86 137.594 73.86C137.107 73.86 136.845 73.6113 136.845 73.1138V73.1198Z" fill="white"/>
<path d="M138.739 69.5706H139.178V71.3422L139.141 71.2997C139.312 70.875 139.714 70.6566 140.097 70.6566C140.725 70.6566 141.151 71.0692 141.151 71.8397V73.7872H140.706V71.8943C140.706 71.3119 140.42 71.051 140 71.051C139.549 71.051 139.184 71.4453 139.184 72.0156V73.7933H138.745V69.5767L138.739 69.5706Z" fill="white"/>
<path d="M144.385 73.7872H143.94V71.8639C143.94 71.2997 143.709 71.051 143.295 71.051C142.85 71.051 142.527 71.4817 142.527 71.9914V73.7872H142.089V70.7355H142.521V71.3483L142.485 71.3058C142.667 70.8811 143.008 70.6566 143.392 70.6566C143.977 70.6566 144.391 70.9842 144.391 71.7183V73.7872H144.385ZM145.195 70.6505C145.834 70.6505 146.236 71.0388 146.236 71.7123V73.7811H145.792V71.8033C145.792 71.2755 145.548 71.0449 145.122 71.0449C144.805 71.0449 144.464 71.2694 144.379 71.779L144.263 71.2937C144.433 70.869 144.793 70.6505 145.195 70.6505Z" fill="white"/>
<path d="M146.979 72.2401C146.979 71.3483 147.503 70.6505 148.349 70.6505C149.141 70.6505 149.683 71.2694 149.683 72.1612V72.3493H147.43C147.442 72.9196 147.765 73.4657 148.38 73.4657C148.764 73.4657 149.092 73.2594 149.196 72.9136H149.622C149.513 73.4717 149.007 73.86 148.362 73.86C147.466 73.86 146.973 73.1138 146.973 72.2401H146.979ZM149.233 71.9974C149.208 71.4514 148.855 71.0449 148.349 71.0449C147.814 71.0449 147.479 71.4878 147.442 71.9974H149.239H149.233Z" fill="white"/>
<path d="M45.4373 0.0060637L31.9841 53.8328H14.962C13.6708 53.8328 12.5441 52.9591 12.2335 51.7093L0.0775081 3.14879C-0.324445 1.55316 0.887504 0.0060637 2.54404 0.0060637H16.5271C17.6904 0.0060637 18.7074 0.79478 18.9937 1.92325L28.6649 40.5581C29.4444 44.0163 29.9926 46.9285 30.0778 47.3714C34.0547 37.5488 29.6576 30.9358 26.2715 18.1161C21.4906 -4.62878e-06 29.0547 0 36.2777 0H45.4434L45.4373 0.0060637Z" fill="white"/>
<path d="M149.385 35.5528C149.385 12.9167 134.878 5.61199 124.689 43.2094V35.9411C124.689 33.4415 122.016 31.8701 119.799 33.0471C117.789 34.121 115.633 34.9643 113.331 35.577C111.79 35.9896 110.7 37.3426 110.7 38.9261V63.8494C110.7 65.6877 112.198 67.1802 114.043 67.1802H121.382C122.783 67.1802 123.983 66.3066 124.458 65.081C126.315 61.2285 126.23 54.1361 126.23 54.1361C126.23 45.9335 128.946 39.3204 132.156 35.1706C133.021 34.0542 134.695 35.3283 133.891 36.4871C125.889 48.0023 128.66 67.0043 133.563 67.0043L146.102 67.1802C147.905 67.2045 149.379 65.7605 149.379 63.9647V37.0513L149.354 37.0331C149.373 36.5478 149.379 36.0563 149.379 35.5528H149.385Z" fill="white"/>
<path d="M111.802 31.045C111.802 31.9914 111.467 33.0471 110.852 34.0482C114.372 33.2109 119.452 31.5971 120.402 27.5382C120.907 25.4815 121.017 23.0304 119.342 21.4166C117.497 19.5783 113.922 19.5783 112.028 21.3074C110.182 22.9758 110.353 25.8152 111.187 27.9265C111.577 28.873 111.802 29.9286 111.802 31.045Z" fill="white"/>
</svg>
