<svg width="59" height="58" viewBox="0 0 59 58" fill="none" xmlns="http://www.w3.org/2000/svg">
<path opacity="0.1" fill-rule="evenodd" clip-rule="evenodd" d="M29.5544 56.5686C44.831 56.5686 57.2151 44.1845 57.2151 28.908C57.2151 13.6314 44.831 1.24731 29.5544 1.24731C14.2779 1.24731 1.8938 13.6314 1.8938 28.908C1.8938 44.1845 14.2779 56.5686 29.5544 56.5686Z" stroke="#FFEBDD" stroke-width="2.37091"/>
<path d="M38.5962 23.7946C38.4679 23.6495 38.2609 23.6131 38.0912 23.7025C37.9856 23.7581 37.7871 23.8311 37.5515 23.9032C37.8488 23.4966 38.0878 23.0414 38.1934 22.6323C38.239 22.4559 38.1723 22.27 38.027 22.1649C37.8817 22.0607 37.6883 22.0607 37.543 22.1649C37.3142 22.3291 36.2095 22.8225 35.511 22.9824C33.9325 21.5603 32.0955 21.4126 30.1859 22.5593C28.6335 23.4914 28.2957 25.387 28.3616 26.5424C24.8084 26.1905 22.5998 24.2602 21.3566 22.6627C21.2696 22.5506 21.1294 22.4915 20.9976 22.5002C20.8591 22.5107 20.7341 22.5897 20.6632 22.7122C20.0754 23.7329 19.9124 24.8614 20.1936 25.976C20.3473 26.5841 20.6159 27.1201 20.9275 27.5544C20.7781 27.4788 20.6336 27.3841 20.4977 27.2712C20.3727 27.1652 20.1978 27.1453 20.05 27.2156C19.9031 27.2877 19.8093 27.4406 19.8093 27.6083C19.8093 29.5221 20.9732 30.7991 22.0601 31.4662C21.8845 31.4445 21.7012 31.4046 21.5162 31.3464C21.3574 31.2968 21.1851 31.3464 21.0753 31.4749C20.9656 31.6026 20.9394 31.7851 21.0078 31.9406C21.6184 33.3296 22.7755 34.2852 24.2071 34.6318C22.9571 35.3868 21.284 35.7568 19.7519 35.5753C19.5534 35.5466 19.3642 35.676 19.3017 35.8724C19.2392 36.0687 19.3211 36.2841 19.496 36.3849C21.8203 37.7271 23.9216 38.2066 25.7375 38.2066C28.3802 38.2066 30.4198 37.1919 31.6614 36.3432C35.0085 34.0585 37.0946 29.9564 36.804 26.2861C37.3403 25.8787 38.1427 25.1264 38.6402 24.3176C38.7432 24.1543 38.7246 23.9388 38.5962 23.7946Z" fill="#FFEBDD"/>
</svg>
